<?xml version="1.0" standalone="no"?>
<!DOCTYPE svg PUBLIC "-//W3C//DTD SVG 20010904//EN"
 "http://www.w3.org/TR/2001/REC-SVG-20010904/DTD/svg10.dtd">
<svg version="1.0" xmlns="http://www.w3.org/2000/svg"
 width="700.000000pt" height="140.000000pt" viewBox="0 0 700.000000 140.000000"
 preserveAspectRatio="xMidYMid meet">

<g transform="translate(0.000000,140.000000) scale(0.100000,-0.100000)"
fill="#000000" stroke="none">
<path d="M5515 1349 c-85 -17 -175 -67 -241 -134 -74 -73 -128 -174 -186 -348
-34 -102 -39 -130 -36 -184 5 -83 41 -137 117 -176 51 -25 62 -27 186 -27 204
0 299 34 411 146 69 69 131 185 184 344 54 162 51 234 -13 306 -56 64 -96 78
-242 80 -71 2 -152 -2 -180 -7z m220 -99 c45 -42 42 -57 -57 -324 -86 -231
-96 -254 -138 -296 -52 -53 -115 -76 -183 -67 -49 7 -87 43 -87 84 0 23 154
452 182 508 52 103 216 158 283 95z"/>
<path d="M340 1346 c0 -2 -72 -194 -160 -426 -88 -233 -160 -425 -160 -427 0
-2 59 -2 131 -1 l132 3 76 202 76 203 162 0 162 0 -25 -67 c-89 -237 -124
-330 -124 -336 0 -4 53 -7 118 -7 106 0 121 2 137 20 13 15 325 816 325 836 0
3 -59 3 -132 2 l-131 -3 -61 -162 -61 -163 -162 0 -162 0 24 63 c13 34 39 104
59 155 20 52 36 98 36 103 0 5 -58 9 -130 9 -72 0 -130 -2 -130 -4z"/>
<path d="M1367 1343 c-3 -5 -75 -194 -161 -422 -86 -228 -159 -418 -162 -423
-3 -4 55 -8 129 -8 l133 0 156 413 c86 226 160 420 163 430 7 16 -3 17 -123
17 -72 0 -133 -3 -135 -7z"/>
<path d="M1810 1328 c-6 -13 -79 -206 -164 -430 l-153 -408 132 0 132 0 59
158 c47 126 65 163 93 189 19 18 37 30 40 27 3 -3 47 -83 98 -177 50 -94 100
-178 111 -185 14 -9 54 -12 144 -10 l125 3 -66 125 c-37 69 -99 187 -139 262
l-73 137 217 163 217 163 -92 3 -93 3 -215 -161 c-118 -89 -216 -160 -218
-158 -1 2 24 73 56 158 32 85 59 156 59 158 0 1 -59 2 -130 2 -126 0 -131 -1
-140 -22z"/>
<path d="M2693 1268 c4 -46 19 -239 34 -430 l28 -348 85 0 c51 1 91 6 101 13
9 7 141 194 294 417 153 223 282 411 288 418 8 10 -4 12 -61 10 l-71 -3 -199
-290 c-110 -159 -203 -290 -208 -290 -8 0 -51 448 -53 553 l-1 32 -121 0 -122
0 6 -82z"/>
<path d="M3496 952 c-83 -218 -156 -412 -163 -430 l-14 -33 123 3 122 3 62
165 c34 91 107 283 162 428 l99 262 -121 0 -121 0 -149 -398z"/>
<path d="M4147 1334 c-101 -31 -178 -154 -163 -261 8 -64 36 -108 124 -203
146 -157 168 -205 117 -255 -24 -25 -24 -25 -239 -25 l-214 0 -16 -47 c-9 -26
-16 -48 -16 -50 0 -10 537 -2 572 9 51 15 126 82 149 133 26 57 25 147 -3 204
-12 25 -68 93 -123 151 -148 153 -157 173 -111 227 l24 28 202 5 202 5 18 48
18 47 -246 -1 c-189 0 -258 -4 -295 -15z"/>
<path d="M4717 938 c-85 -227 -159 -421 -162 -431 -7 -16 1 -17 115 -15 l122
3 159 420 c87 231 159 423 159 428 0 4 -53 7 -119 7 l-118 0 -156 -412z"/>
<path d="M6075 929 c-88 -232 -161 -426 -163 -430 -2 -5 23 -9 56 -9 56 0 60
2 71 28 29 73 211 556 211 561 0 25 33 -53 120 -284 60 -158 110 -277 122
-288 15 -13 38 -17 92 -17 l71 0 135 357 c74 196 147 390 162 430 l28 74 -61
-3 -61 -3 -107 -284 c-59 -157 -112 -286 -117 -288 -5 -1 -61 127 -124 285
l-116 287 -79 3 -80 3 -160 -422z"/>
</g>
</svg>
