<?xml version="1.0" standalone="no"?>
<!DOCTYPE svg PUBLIC "-//W3C//DTD SVG 20010904//EN"
 "http://www.w3.org/TR/2001/REC-SVG-20010904/DTD/svg10.dtd">
<svg version="1.0" xmlns="http://www.w3.org/2000/svg"
 width="1024.000000pt" height="305.000000pt" viewBox="0 0 1024.000000 305.000000"
 preserveAspectRatio="xMidYMid meet">

<g transform="translate(0.000000,305.000000) scale(0.100000,-0.100000)"
fill="#000000" stroke="none">
<path d="M1862 3034 c2 -13 -16 -20 -92 -36 -211 -43 -456 -138 -658 -255
-330 -190 -589 -428 -796 -730 -121 -177 -230 -414 -269 -588 -11 -45 -18 -60
-31 -59 -14 2 -16 -23 -16 -261 0 -241 1 -263 17 -261 13 1 20 -12 28 -49 33
-141 129 -308 248 -428 113 -114 154 -145 273 -205 78 -40 129 -63 169 -77 49
-17 162 -45 183 -45 15 0 26 -7 29 -20 5 -19 14 -20 295 -20 210 0 287 3 282
11 -9 15 14 29 47 29 32 0 213 44 294 72 149 51 427 178 462 212 12 11 21 101
11 111 -3 3 -54 -18 -114 -46 -256 -120 -505 -179 -759 -179 -204 0 -381 35
-545 107 -126 56 -271 170 -373 295 -66 80 -134 235 -163 368 -19 89 -18 316
2 421 86 463 417 901 898 1187 201 120 385 192 641 250 52 11 129 16 295 16
204 1 233 -1 315 -22 236 -60 390 -145 531 -293 71 -76 109 -129 158 -225 108
-213 119 -546 29 -844 -70 -229 -198 -436 -385 -623 -95 -95 -108 -116 -70
-116 9 0 60 -3 112 -7 167 -12 317 18 465 93 165 83 307 227 392 398 37 74 41
87 148 420 48 149 100 308 115 355 16 47 54 166 85 265 54 169 119 373 198
615 19 58 32 108 30 113 -2 4 -141 7 -308 7 l-304 0 -61 -192 c-34 -106 -70
-218 -80 -248 -10 -30 -44 -136 -75 -235 -31 -99 -64 -201 -72 -227 -24 -75
-34 -65 -48 47 -33 257 -203 534 -421 686 -112 77 -332 169 -443 184 -41 6
-51 11 -51 26 0 18 -12 19 -310 19 -282 0 -311 -2 -308 -16z"/>
<path d="M4974 3003 l-300 -3 -48 -153 c-45 -140 -98 -305 -196 -612 -21 -66
-64 -201 -95 -300 -31 -99 -81 -256 -111 -350 -58 -182 -62 -196 -149 -470
-32 -99 -72 -227 -91 -284 -18 -57 -31 -108 -28 -112 5 -9 583 -12 607 -3 10
3 30 50 52 122 20 65 49 155 65 202 15 47 49 153 74 235 139 442 152 472 240
552 66 60 145 95 226 100 75 5 116 -14 151 -69 37 -59 44 -33 -232 -877 -44
-134 -78 -250 -75 -256 3 -10 74 -13 298 -14 162 -1 302 1 311 5 11 4 39 75
88 228 178 555 240 750 280 871 37 114 42 142 43 225 1 85 -2 101 -28 154 -80
163 -241 239 -457 215 -193 -22 -342 -81 -483 -194 -38 -30 -71 -53 -73 -52
-1 2 15 57 36 123 22 65 60 187 86 269 25 83 67 214 91 292 41 128 47 168 26
161 -4 -2 -142 -4 -308 -5z"/>
<path d="M1915 2423 c-343 -14 -628 -161 -823 -425 -23 -31 -42 -62 -42 -67 0
-14 22 -19 135 -30 91 -10 153 -16 370 -41 l70 -8 50 53 c60 64 114 98 186
119 97 28 199 21 279 -17 45 -22 45 -22 45 -73 -1 -74 -20 -98 -102 -122 -95
-29 -297 -76 -433 -102 -239 -45 -277 -52 -350 -71 -88 -23 -87 -22 -211 -82
-197 -93 -317 -254 -335 -446 -14 -148 71 -295 205 -354 104 -46 314 -55 491
-22 130 25 300 98 397 171 17 13 36 24 41 24 5 0 9 -24 9 -53 0 -29 6 -67 14
-83 l14 -29 303 -3 c166 -1 302 1 302 5 0 5 -4 25 -9 46 -5 22 -6 51 -1 65 5
15 18 61 31 102 12 41 30 100 39 130 10 30 64 197 120 370 56 173 106 329 113
345 7 17 12 77 11 140 0 104 -2 114 -35 185 -57 121 -171 212 -299 238 -146
30 -369 43 -585 35z m141 -940 c-12 -66 -80 -195 -135 -256 -109 -118 -333
-190 -446 -143 -39 16 -75 68 -75 106 1 42 35 105 76 138 52 43 158 83 350
131 88 22 171 45 185 50 45 18 52 14 45 -26z"/>
<path d="M9270 2418 c-269 -21 -495 -121 -666 -293 -75 -76 -159 -190 -150
-204 3 -5 41 -12 83 -15 87 -7 216 -21 338 -37 155 -19 154 -19 215 45 122
129 319 164 478 84 18 -9 22 -20 22 -59 0 -92 -18 -107 -175 -147 -148 -38
-249 -61 -360 -82 -371 -71 -421 -84 -552 -145 -185 -85 -305 -234 -342 -423
-36 -185 90 -368 283 -412 151 -34 359 -18 536 40 87 29 221 97 279 141 39 31
46 24 46 -44 1 -34 6 -72 13 -84 l13 -23 299 0 300 0 -6 54 c-5 40 -1 70 14
117 144 448 252 795 268 856 2 7 10 10 19 7 13 -5 15 16 15 170 0 163 -1 176
-18 176 -11 0 -23 13 -31 35 -16 45 -104 133 -169 168 -61 33 -124 50 -247 66
-105 14 -382 19 -505 9z m192 -929 c-8 -79 -90 -219 -170 -290 -116 -104 -319
-160 -416 -114 -102 49 -83 192 35 265 55 34 205 84 359 120 52 12 113 28 135
36 50 16 61 13 57 -17z"/>
<path d="M6522 2412 c-6 -5 -28 -57 -47 -118 -20 -60 -60 -183 -89 -274 -30
-91 -84 -259 -121 -375 -37 -115 -82 -257 -101 -315 -76 -233 -71 -344 22
-466 47 -62 67 -78 131 -109 193 -94 575 -12 777 166 25 22 50 38 54 35 5 -3
-4 -43 -19 -88 -16 -46 -28 -89 -29 -95 0 -10 68 -13 309 -13 l309 0 87 268
c48 147 118 364 157 482 38 118 97 298 130 400 33 102 82 252 109 334 28 83
47 156 44 164 -4 11 -59 13 -302 11 -164 -1 -306 -6 -315 -11 -10 -5 -18 -14
-18 -21 0 -7 -20 -73 -44 -147 -24 -74 -74 -229 -111 -345 -130 -405 -155
-476 -185 -520 -61 -88 -152 -147 -272 -175 -53 -12 -59 -12 -104 11 -94 47
-103 106 -45 284 21 66 69 215 106 330 37 116 93 293 126 394 32 101 56 187
54 192 -7 10 -596 11 -613 1z"/>
<path d="M5198 549 c-91 -26 -112 -82 -106 -284 3 -125 5 -143 25 -171 21 -30
54 -49 98 -56 12 -2 19 -11 19 -21 -2 -15 8 -17 67 -17 56 0 67 3 63 15 -4 10
3 16 23 20 77 17 123 71 123 146 l0 49 -65 0 c-62 0 -65 -1 -65 -23 0 -35 -30
-57 -77 -57 -64 0 -73 17 -73 148 0 103 2 112 22 126 46 32 107 15 123 -34 5
-17 15 -20 71 -20 l64 0 0 38 c-1 52 -29 102 -69 126 -40 23 -182 32 -243 15z"/>
<path d="M5938 548 c-49 -13 -84 -47 -97 -94 -15 -54 -13 -290 3 -334 15 -40
67 -80 106 -80 33 0 43 -9 29 -27 -9 -11 2 -13 61 -13 63 0 71 2 60 15 -10 12
-6 15 29 21 76 12 121 70 121 154 l0 40 -65 0 c-62 0 -65 -1 -65 -23 0 -35
-30 -57 -78 -57 -61 0 -72 22 -72 143 0 54 5 107 10 117 13 24 73 36 105 22
13 -6 25 -21 27 -34 3 -21 9 -23 72 -26 l69 -3 -6 52 c-9 70 -42 113 -101 128
-53 13 -156 13 -208 -1z"/>
<path d="M6557 544 c-4 -4 -7 -31 -7 -61 l0 -53 65 0 c45 0 65 -4 66 -12 0 -7
1 -94 2 -193 l2 -180 67 -3 68 -3 2 193 3 193 61 3 c69 3 73 8 64 77 l-5 40
-191 3 c-104 1 -193 -1 -197 -4z"/>
<path d="M7236 542 c-4 -8 3 -44 24 -117 19 -67 54 -195 76 -280 13 -49 28
-93 32 -97 5 -5 53 -7 107 -6 l98 3 68 240 c37 132 68 246 69 253 0 10 -17 12
-67 10 l-68 -3 -13 -40 c-7 -22 -17 -58 -22 -80 -17 -81 -62 -240 -70 -249 -5
-5 -11 1 -14 15 -19 91 -80 327 -87 342 -8 13 -23 17 -69 17 -32 0 -61 -4 -64
-8z"/>
</g>
</svg>
