<?xml version="1.0" standalone="no"?>
<!DOCTYPE svg PUBLIC "-//W3C//DTD SVG 20010904//EN"
 "http://www.w3.org/TR/2001/REC-SVG-20010904/DTD/svg10.dtd">
<svg version="1.0" xmlns="http://www.w3.org/2000/svg"
 width="300.000000pt" height="185.000000pt" viewBox="0 0 300.000000 185.000000"
 preserveAspectRatio="xMidYMid meet">
<metadata>
Created by potrace 1.10, written by Peter Selinger 2001-2011
</metadata>
<g transform="translate(0.000000,185.000000) scale(0.100000,-0.100000)"
fill="#000000" stroke="none">
<path d="M428 1843 c217 -2 568 -2 780 0 213 1 36 2 -393 2 -429 0 -603 -1
-387 -2z"/>
<path d="M1663 1843 c37 -2 97 -2 135 0 37 2 6 3 -68 3 -74 0 -105 -1 -67 -3z"/>
<path d="M1953 1843 c48 -2 125 -2 170 0 45 1 6 3 -88 3 -93 0 -130 -2 -82 -3z"/>
<path d="M2367 1843 c79 -2 207 -2 286 0 78 1 14 3 -143 3 -157 0 -221 -2
-143 -3z"/>
<path d="M2843 1843 c26 -2 67 -2 90 0 23 2 2 3 -48 3 -49 0 -68 -1 -42 -3z"/>
<path d="M2992 1800 c0 -19 2 -27 5 -17 2 9 2 25 0 35 -3 9 -5 1 -5 -18z"/>
<path d="M4 1670 c0 -74 1 -105 3 -67 2 37 2 97 0 135 -2 37 -3 6 -3 -68z"/>
<path d="M2994 1500 c0 -146 2 -205 3 -132 2 72 2 192 0 265 -1 72 -3 13 -3
-133z"/>
<path d="M1404 1669 c-196 -18 -394 -128 -513 -286 -105 -139 -153 -280 -153
-453 0 -134 20 -219 79 -340 77 -155 223 -288 392 -358 344 -141 760 13 935
347 64 123 81 198 81 356 -1 131 -3 146 -32 228 -44 125 -86 189 -188 293 -75
76 -105 99 -182 137 -133 66 -265 90 -419 76z m259 -43 c141 -39 230 -88 323
-181 143 -142 214 -307 218 -510 2 -68 -3 -124 -15 -176 -19 -81 -90 -227
-143 -292 -66 -83 -241 -203 -322 -222 -11 -2 -44 -11 -74 -20 -122 -35 -304
-22 -435 30 -205 82 -353 241 -425 455 -31 94 -38 254 -15 357 22 101 45 173
54 173 4 0 12 15 19 34 17 47 74 120 146 189 58 54 154 112 241 144 127 48
294 55 428 19z"/>
<path d="M873 1193 c2 -5 41 -74 86 -155 l81 -146 0 -96 0 -96 45 0 45 0 0 96
0 95 74 132 c40 73 78 142 85 155 11 21 10 22 -37 22 l-49 0 -58 -111 c-41
-80 -60 -107 -66 -98 -5 8 -32 58 -60 112 l-51 97 -50 0 c-27 0 -47 -3 -45 -7z
m72 -23 c-3 -5 -1 -10 4 -10 6 0 11 -7 11 -16 0 -8 4 -13 8 -10 4 3 28 -32 51
-77 24 -45 46 -85 50 -89 9 -10 52 2 45 13 -3 5 0 9 5 9 6 0 11 5 11 11 0 20
61 134 81 151 14 12 16 18 7 21 -7 3 1 6 17 6 21 0 26 -2 16 -8 -7 -5 -10 -14
-7 -20 11 -17 -4 -36 -16 -20 -6 10 -7 7 -3 -10 5 -17 4 -22 -5 -16 -8 5 -11
4 -6 -3 7 -12 -31 -82 -46 -82 -5 0 -6 -4 -3 -10 6 -10 -21 -59 -40 -72 -6 -5
-6 -8 0 -8 6 0 3 -4 -5 -10 -9 -5 -15 -27 -16 -57 -1 -26 -2 -68 -3 -93 -1
-39 -4 -46 -21 -46 -18 0 -20 7 -20 88 0 69 -4 94 -19 120 -11 17 -18 35 -15
40 3 4 0 8 -6 8 -6 0 -9 4 -6 9 3 5 0 11 -8 14 -8 3 -20 22 -27 41 -7 20 -17
36 -21 36 -4 0 -8 8 -8 19 0 10 -7 24 -15 31 -9 7 -14 19 -11 26 3 7 -3 15
-12 17 -10 3 -5 5 11 6 17 1 26 -3 22 -9z"/>
<path d="M1580 1008 c1 -268 9 -295 94 -308 l46 -7 0 36 c0 28 -5 39 -22 46
-23 10 -23 13 -26 218 l-2 207 -45 0 -45 0 0 -192z m63 165 c-10 -4 -10 -9 0
-25 9 -16 9 -22 0 -25 -7 -3 -13 -9 -13 -14 0 -6 5 -7 10 -4 6 3 10 -1 10 -9
0 -9 -4 -16 -10 -16 -5 0 -10 -5 -10 -11 0 -5 5 -7 10 -4 6 4 10 -11 10 -37 0
-31 -3 -39 -10 -28 -7 12 -10 8 -10 -15 0 -23 3 -27 10 -15 7 10 10 -18 10
-87 0 -62 4 -103 10 -103 6 0 10 -7 10 -16 0 -10 6 -14 15 -10 19 7 19 -8 0
-24 -11 -9 -20 -8 -45 10 -24 17 -30 29 -30 58 0 20 -1 106 -3 190 -1 83 1
152 6 152 9 0 5 23 -7 31 -4 4 5 6 20 6 16 0 24 -2 17 -4z"/>
<path d="M1331 1070 c-40 -10 -87 -55 -96 -92 -7 -27 -6 -28 37 -28 35 0 45 4
53 23 8 17 20 23 51 25 48 3 74 -16 74 -54 0 -22 -4 -24 -52 -24 -124 -1 -178
-36 -178 -114 0 -56 28 -92 82 -107 51 -13 97 -5 133 23 l27 21 -6 -21 c-7
-20 -4 -22 39 -22 l47 0 -4 144 c-3 128 -5 148 -24 173 -36 48 -113 71 -183
53z m94 -30 c8 7 15 8 15 4 0 -5 13 -15 29 -22 22 -10 28 -18 24 -35 -4 -18
-3 -19 6 -7 13 18 19 -106 10 -221 -2 -26 -7 -35 -21 -36 -10 -1 -16 2 -13 7
3 5 -4 11 -15 15 -19 6 -19 8 -5 28 32 46 13 106 -32 101 -15 -2 -20 -1 -10 2
9 3 17 9 17 14 0 4 9 10 20 13 28 7 27 64 -3 97 -27 31 -91 35 -121 8 -11 -10
-24 -18 -28 -18 -5 0 -7 -4 -4 -8 2 -4 -4 -8 -15 -8 -21 0 -25 11 -9 21 6 4 8
10 6 14 -6 9 61 34 72 27 4 -2 14 -1 22 4 9 5 19 5 27 -2 9 -7 17 -7 28 2z
m-77 -169 c-44 -9 -71 -29 -64 -48 3 -8 1 -11 -4 -8 -13 8 -13 2 2 -29 6 -14
19 -28 30 -31 10 -4 18 -10 18 -14 0 -4 15 -5 34 -3 18 2 36 0 39 -5 3 -5 -8
-7 -25 -5 -23 3 -29 1 -23 -8 6 -9 3 -10 -13 -1 -11 6 -28 8 -36 5 -9 -3 -16
-1 -16 5 0 6 -6 11 -14 11 -18 0 -27 13 -31 48 -8 68 13 89 94 89 l46 1 -37
-7z m102 -50 c0 -38 -32 -61 -82 -61 -35 0 -68 20 -68 41 0 6 5 19 10 30 9 16
22 19 75 19 l65 0 0 -29z"/>
<path d="M1837 1066 c-50 -19 -67 -34 -88 -81 -27 -58 -25 -149 4 -205 30 -60
75 -85 152 -85 73 0 122 25 148 75 l17 35 -42 3 c-34 3 -45 -1 -59 -20 -14
-18 -27 -23 -64 -23 -53 0 -85 27 -85 72 l0 25 126 -4 126 -3 -5 57 c-9 98
-59 153 -149 163 -25 3 -59 -1 -81 -9z m71 -27 c26 5 48 1 72 -11 19 -10 31
-18 25 -18 -5 0 -2 -7 9 -15 10 -8 15 -19 10 -26 -4 -7 -3 -10 3 -6 12 8 23
-26 22 -63 -1 -20 -3 -17 -9 10 l-7 35 -2 -32 c-1 -27 -5 -33 -23 -32 -13 0
-32 4 -43 9 -19 8 -19 9 3 9 27 1 37 21 28 57 -11 42 -51 72 -94 70 -39 -1
-106 -41 -97 -57 4 -5 3 -9 -2 -9 -4 0 -8 -11 -8 -25 0 -19 6 -27 25 -31 40
-9 46 -12 24 -13 -12 -1 -27 -8 -34 -16 -16 -20 -6 -86 15 -98 8 -4 13 -12 10
-18 -6 -9 8 -13 34 -10 7 2 11 -2 8 -7 -3 -4 7 -6 24 -4 24 4 28 1 23 -12 -13
-35 -130 11 -153 60 -6 14 -8 30 -5 36 4 7 2 8 -4 4 -23 -14 -14 104 10 151
21 40 74 76 91 62 4 -3 25 -3 45 0z m49 -52 c6 -7 15 -24 18 -39 l7 -28 -81 0
c-84 0 -90 4 -75 45 15 39 100 53 131 22z m-27 -99 c0 -5 -13 -8 -30 -8 -16 0
-30 4 -30 10 0 5 13 8 30 7 16 -1 30 -5 30 -9z m80 -113 c5 3 11 1 15 -5 3 -5
2 -10 -3 -10 -4 0 -18 -9 -31 -21 -12 -11 -29 -18 -37 -15 -17 7 -19 26 -1 26
7 0 19 9 27 20 8 11 16 16 18 10 2 -5 8 -8 12 -5z"/>
<path d="M4 1355 c0 -99 2 -138 3 -87 2 51 2 132 0 180 -1 48 -3 6 -3 -93z"/>
<path d="M2995 635 c0 -330 1 -464 2 -297 2 167 2 437 0 600 -1 163 -2 27 -2
-303z"/>
<path d="M4 650 c0 -63 1 -89 3 -57 2 31 2 83 0 115 -2 31 -3 5 -3 -58z"/>
<path d="M4 360 c0 -91 2 -128 3 -82 2 45 2 119 0 165 -1 45 -3 8 -3 -83z"/>
<path d="M3 150 c0 -25 2 -35 4 -22 2 12 2 32 0 45 -2 12 -4 2 -4 -23z"/>
<path d="M2 70 c0 -19 2 -27 5 -17 2 9 2 25 0 35 -3 9 -5 1 -5 -18z"/>
<path d="M863 3 c357 -2 937 -2 1290 0 353 1 62 2 -648 2 -710 0 -998 -1 -642
-2z"/>
</g>
</svg>
