<?xml version="1.0" standalone="no"?>
<!DOCTYPE svg PUBLIC "-//W3C//DTD SVG 20010904//EN"
 "http://www.w3.org/TR/2001/REC-SVG-20010904/DTD/svg10.dtd">
<svg version="1.0" xmlns="http://www.w3.org/2000/svg"
 width="300.000000pt" height="150.000000pt" viewBox="0 0 300.000000 150.000000"
 preserveAspectRatio="xMidYMid meet">
<metadata>
Created by potrace 1.10, written by Peter Selinger 2001-2011
</metadata>
<g transform="translate(0.000000,150.000000) scale(0.100000,-0.100000)"
fill="#000000" stroke="none">
<path d="M1210 1155 c-199 -29 -369 -85 -470 -153 -67 -45 -120 -120 -120
-169 0 -145 218 -272 555 -324 109 -17 163 -20 335 -16 225 5 325 19 480 69
157 50 252 109 296 184 65 111 0 220 -184 306 -94 45 -231 81 -384 103 -125
18 -389 18 -508 0z m563 -35 c220 -36 401 -111 476 -196 28 -32 33 -47 33
-104 0 -41 -3 -48 -43 -94 -45 -51 -131 -100 -240 -136 -70 -24 -72 -24 -174
-45 -214 -42 -573 -38 -765 10 -14 3 -34 8 -45 9 -64 11 -233 84 -268 117 -12
10 -24 19 -29 19 -4 0 -21 19 -38 42 -64 88 -31 175 94 251 109 66 227 103
441 136 145 23 382 19 558 -9z"/>
<path d="M1062 1048 c-9 -9 -12 -72 -12 -221 0 -188 2 -211 18 -223 12 -9 54
-13 144 -14 122 0 127 1 146 24 18 24 19 24 38 6 31 -30 56 -32 86 -7 43 35
46 71 10 107 -38 38 -53 38 -96 0 -20 -18 -37 -26 -41 -20 -3 5 -43 10 -91 10
l-84 0 0 34 0 34 70 0 c81 0 100 11 100 56 0 47 -15 56 -97 56 -71 0 -73 1
-73 25 0 25 1 25 78 25 47 0 83 5 90 12 20 20 15 86 -7 98 -28 15 -264 13
-279 -2z m273 -49 l0 -33 -92 2 -93 1 0 -54 0 -55 88 3 87 2 3 -32 3 -33 -90
0 -91 0 0 -57 0 -58 97 0 97 0 2 -32 2 -33 -139 0 -139 0 0 208 0 207 132 -2
133 -2 0 -32z m143 -291 c7 -7 12 -24 12 -38 0 -48 -45 -67 -82 -33 -22 20
-23 41 -1 65 18 21 53 24 71 6z"/>
<path d="M1502 1048 c-7 -7 -12 -28 -12 -48 0 -49 15 -60 77 -60 l53 0 0 -158
c0 -139 2 -161 18 -173 26 -22 71 -23 93 -3 17 15 19 32 19 176 l0 158 53 0
c61 0 77 12 77 54 -1 63 -9 66 -197 66 -118 0 -173 -4 -181 -12z m356 -54 l3
-37 -70 5 -71 5 0 -173 0 -174 -40 0 -41 0 1 172 2 173 -66 -3 -66 -4 0 39 0
38 172 -2 173 -2 3 -37z"/>
<path d="M1837 730 c-47 -37 -35 -106 22 -130 26 -10 33 -9 55 7 49 34 47 102
-4 128 -37 19 -42 19 -73 -5z m75 -27 c24 -21 23 -45 -2 -68 -29 -27 -74 -10
-78 28 -6 52 41 76 80 40z"/>
<path d="M1971 476 c-32 -34 -15 -63 40 -72 50 -8 67 -34 39 -59 -19 -17 -21
-17 -38 -2 -23 21 -32 21 -32 2 0 -24 45 -40 75 -27 56 26 36 95 -31 108 -40
7 -50 19 -34 39 8 10 21 13 37 8 19 -4 24 -2 21 8 -8 25 -52 22 -77 -5z"/>
<path d="M898 465 c-10 -23 -8 -29 21 -59 25 -25 31 -39 26 -55 -9 -29 -43
-27 -55 4 -11 29 -30 33 -30 7 0 -26 32 -52 63 -52 19 0 31 8 42 30 15 29 14
31 -20 68 -26 29 -32 41 -23 50 16 16 33 15 48 -3 7 -8 17 -12 22 -9 17 11
-24 44 -54 44 -21 0 -32 -7 -40 -25z"/>
<path d="M1050 456 c0 -3 9 -29 20 -58 16 -43 18 -61 10 -88 -12 -43 -13 -40
4 -40 8 0 17 16 21 38 4 20 22 56 41 79 37 45 40 53 22 53 -7 0 -24 -16 -37
-36 l-25 -36 -15 43 c-9 23 -22 44 -28 47 -7 2 -13 1 -13 -2z"/>
<path d="M1842 407 c-6 -29 -12 -60 -12 -70 0 -31 -16 -18 -51 43 -19 33 -37
60 -41 60 -5 0 -8 -43 -8 -96 0 -72 3 -95 13 -91 8 3 12 23 11 61 -1 31 1 56
5 56 3 0 18 -23 34 -51 15 -27 31 -47 36 -44 5 3 12 28 16 55 4 27 10 52 14
55 4 2 15 -20 25 -50 10 -34 23 -55 32 -55 18 0 18 -2 -6 47 -11 23 -25 62
-32 87 -7 25 -15 46 -18 46 -3 0 -11 -24 -18 -53z"/>
<path d="M1247 412 c-24 -27 -22 -33 25 -74 36 -31 41 -40 32 -54 -16 -27 -30
-28 -54 -4 -12 12 -24 19 -27 16 -10 -10 7 -36 31 -48 35 -16 76 11 76 51 0
22 -9 34 -41 56 -38 25 -40 28 -25 43 13 14 20 14 36 4 25 -15 30 -15 30 2 0
29 -59 35 -83 8z"/>
<path d="M1582 423 c-29 -4 -33 -7 -28 -26 3 -12 6 -52 6 -89 l0 -68 50 0 c40
0 50 3 50 16 0 13 -7 15 -35 11 -24 -4 -35 -2 -35 6 0 7 -3 22 -6 35 -6 20 -3
22 35 22 31 0 41 4 41 16 0 13 -7 15 -40 9 -38 -6 -40 -5 -40 19 0 22 5 25 38
28 20 2 37 8 37 13 0 11 -25 14 -73 8z"/>
<path d="M1390 410 c0 -5 9 -10 20 -10 18 0 20 -7 20 -85 0 -50 4 -85 10 -85
6 0 10 35 10 85 0 84 0 85 25 85 14 0 25 5 25 10 0 6 -25 10 -55 10 -30 0 -55
-4 -55 -10z"/>
</g>
</svg>
