<svg xmlns="http://www.w3.org/2000/svg" viewBox="0 0 174.55 50.44"><title>NEMTEK_logo</title><path d="M174.55,25.22A25.24,25.24,0,0,1,138.38,48V41.67l5.82,5.81a1.49,1.49,0,0,0,2.55-1V32.69L153,38.9a1.5,1.5,0,0,0,2.55-1.06V23.24l6,6A1.5,1.5,0,0,0,164,28.14V14.7l5.61,5.61a1.49,1.49,0,0,0,2.55-1V14.57a25.16,25.16,0,0,1,2.36,10.65m-39.16,21A25.37,25.37,0,0,1,129.65,41V33.64l5.74,5.74Zm-8.73-10a25.23,25.23,0,0,1,33.81-33.7v5L154.85,2a1.49,1.49,0,0,0-2.55,1.05V16.51l-6-6a1.51,1.51,0,0,0-1.63-.32,1.49,1.49,0,0,0-.92,1.38V26.21L137.58,20A1.49,1.49,0,0,0,135,21.05V34.79L129.21,29a1.51,1.51,0,0,0-1.63-.32,1.48,1.48,0,0,0-.92,1.38Zm36.8-32a25.22,25.22,0,0,1,5.76,5.39,1.55,1.55,0,0,0,0,.22v5.71L163.59,10l-.13-.11ZM161,12.4V24.53l-5.75-5.75V6.67l5.62,5.62a.69.69,0,0,0,.13.11M152.53,21V34.23l-5.75-5.74V15.21Zm-8.77,9.45V42.82L138,37.07V24.66Z" fill="#0075be"/><path d="M174.5,25.22a25.2,25.2,0,0,1-36.1,22.69V41.63l5.81,5.81a1.5,1.5,0,0,0,2.55-1V32.67l6.2,6.2a1.48,1.48,0,0,0,1.62.33,1.5,1.5,0,0,0,.92-1.38V23.24l5.95,6A1.5,1.5,0,0,0,164,28.14V14.72l5.6,5.6a1.5,1.5,0,0,0,1.63.33,1.52,1.52,0,0,0,.92-1.38V14.59a25,25,0,0,1,2.35,10.63m-39.08,21A25.32,25.32,0,0,1,129.68,41V33.62l5.74,5.74Zm-8.72-9.94A25.19,25.19,0,0,1,160.45,2.63v5l-5.61-5.61a1.51,1.51,0,0,0-1.63-.32,1.49,1.49,0,0,0-.91,1.38V16.52l-6-5.95a1.51,1.51,0,0,0-1.63-.32,1.48,1.48,0,0,0-.92,1.38V26.2L137.6,20a1.48,1.48,0,0,0-1.62-.33,1.5,1.5,0,0,0-.93,1.38V34.77l-5.8-5.8A1.49,1.49,0,0,0,126.7,30Zm36.73-31.9a25.13,25.13,0,0,1,5.75,5.38,1.55,1.55,0,0,0,0,.22v5.7l-5.61-5.61-.13-.11ZM161,12.43v12.1l-5.73-5.73V6.7l5.6,5.61.13.12M152.52,21V34.22l-5.74-5.74V15.23Zm-8.75,9.43V42.78L138,37.05V24.66Z" fill="#0075be"/><path d="M16,33.43c2.13,0,2.22-1.4,2.22-1.4V17h-4V29.12S7.18,18.7,6.66,17.9A1.91,1.91,0,0,0,5.32,17H1.78A1.63,1.63,0,0,0,0,18.33v15.1H4V21.35s4.9,7.14,6.5,9.65c0,0,1.45,2.45,3.09,2.45Z" fill="#0075be"/><path d="M21.3,31.28V19.2S21.08,17,24,17H36.39v4.31H25.74v1.73H35.5v4.31H25.74v1.73H36.39v4.32H23.52a2,2,0,0,1-2.22-2.16" fill="#0075be"/><path d="M82.83,31.28V19.2S82.61,17,85.49,17H97.92v4.31H87.27v1.73H97v4.31H87.27v1.73H97.92v4.32H85.05a2,2,0,0,1-2.22-2.16" fill="#0075be"/><path d="M39.49,33.46V19.22a2.34,2.34,0,0,1,2.59-2.15h2.74a2,2,0,0,1,2.11,1.67c.44,1.87,3.21,10.41,3.21,10.41l3.74-10.41s.19-1.7,2.69-1.7h2.57a2.65,2.65,0,0,1,2.11,2.77c0,2.42,0,13.65,0,13.65h-4V21.38L53.5,31.79s-.36,1.65-3,1.65c-1.83,0-2.74-.67-3.15-1.65-.24-.6-3.82-10.41-3.82-10.41V33.46Z" fill="#0075be"/><polygon points="70.11 21.35 64.34 21.35 64.34 17.04 80.31 17.04 80.31 21.35 74.1 21.35 74.1 33.44 70.11 33.44 70.11 21.35" fill="#0075be"/><polygon points="104.72 17.04 100.73 17.04 100.73 33.44 104.72 33.44 104.72 27.39 106.5 27.39 111.82 33.44 117.14 33.44 110.05 25.24 117.14 17.04 111.82 17.04 106.5 23.08 104.72 23.08 104.72 17.04" fill="#0075be"/><polygon points="4.78 45.25 4.78 44 1.42 44 1.42 42.25 4.28 42.25 4.28 40.99 1.42 40.99 1.42 39.3 4.78 39.3 4.78 38.05 0 38.05 0 45.25 4.78 45.25" fill="#0075be"/><path d="M8.32,45.25V44.14H7.81c-.34,0-.47-.16-.47-.48V38.05H6v5.7a1.44,1.44,0,0,0,1.55,1.5Z" fill="#0075be"/><path d="M12.18,42.13h-2a1.45,1.45,0,0,1,.12-.57.94.94,0,0,1,.89-.55.93.93,0,0,1,.89.55,1.45,1.45,0,0,1,.12.57m1.31.9v-.59a2.28,2.28,0,0,0-2.32-2.52c-1.37,0-2.31,1-2.31,2.69,0,2.14,1.2,2.7,2.45,2.7a2.53,2.53,0,0,0,2-.83l-.8-.77a1.49,1.49,0,0,1-1.21.49A1.09,1.09,0,0,1,10.16,43Z" fill="#0075be"/><path d="M18.57,44.6l-.9-.88a1.07,1.07,0,0,1-.85.41.94.94,0,0,1-.76-.34,1.86,1.86,0,0,1-.29-1.18,1.8,1.8,0,0,1,.29-1.16.92.92,0,0,1,.76-.35,1.08,1.08,0,0,1,.85.42l.9-.89a2.26,2.26,0,0,0-1.75-.71c-1.06,0-2.38.56-2.38,2.69s1.32,2.7,2.38,2.7a2.29,2.29,0,0,0,1.75-.71" fill="#0075be"/><path d="M22,45.25V44.14h-.48c-.32,0-.46-.17-.46-.48V41.13H22v-1h-.94V38.57H19.72v1.56h-.56v1h.56v2.62a1.43,1.43,0,0,0,1.54,1.5Z" fill="#0075be"/><path d="M27.07,40.42a1.57,1.57,0,0,0-1.25-.5,1.8,1.8,0,0,0-1.34.57V40H23.19v5.27h1.32V42.08a.88.88,0,0,1,1.56-.66Z" fill="#0075be"/><path d="M29.16,38H27.81v1.07h1.35Zm0,2H27.83v5.27h1.32Z" fill="#0075be"/><path d="M34.49,44.6l-.89-.88a1.09,1.09,0,0,1-.86.41.94.94,0,0,1-.76-.34,1.86,1.86,0,0,1-.29-1.18A1.8,1.8,0,0,1,32,41.45a.92.92,0,0,1,.76-.35,1.1,1.1,0,0,1,.86.42l.89-.89a2.26,2.26,0,0,0-1.75-.71c-1.06,0-2.38.56-2.38,2.69s1.32,2.7,2.38,2.7a2.29,2.29,0,0,0,1.75-.71" fill="#0075be"/><polygon points="42.77 39.3 42.77 38.05 37.99 38.05 37.99 45.25 39.41 45.25 39.41 42.33 42.27 42.33 42.27 41.07 39.41 41.07 39.41 39.3 42.77 39.3" fill="#0075be"/><path d="M46.62,42.13h-2a1.29,1.29,0,0,1,.13-.57.92.92,0,0,1,.88-.55.93.93,0,0,1,.89.55,1.45,1.45,0,0,1,.12.57m1.31.9v-.59a2.28,2.28,0,0,0-2.32-2.52c-1.37,0-2.31,1-2.31,2.69,0,2.14,1.2,2.7,2.46,2.7a2.52,2.52,0,0,0,2-.83l-.8-.77a1.48,1.48,0,0,1-1.2.49A1.09,1.09,0,0,1,44.6,43Z" fill="#0075be"/><path d="M53.56,45.25V41.88A1.92,1.92,0,0,0,53,40.39a1.69,1.69,0,0,0-1.25-.47,1.82,1.82,0,0,0-1.33.55V40H49.15v5.27h1.33V42.07a.88.88,0,1,1,1.76,0v3.18Z" fill="#0075be"/><path d="M58.85,44.6,58,43.72a1.09,1.09,0,0,1-.86.41.91.91,0,0,1-.75-.34,1.8,1.8,0,0,1-.3-1.18,1.74,1.74,0,0,1,.3-1.16.89.89,0,0,1,.75-.35,1.1,1.1,0,0,1,.86.42l.89-.89a2.26,2.26,0,0,0-1.75-.71c-1.06,0-2.37.56-2.37,2.69s1.31,2.7,2.37,2.7a2.29,2.29,0,0,0,1.75-.71" fill="#0075be"/><path d="M61.22,38H59.86v1.07h1.36Zm0,2H59.88v5.27h1.33Z" fill="#0075be"/><path d="M67.1,45.25V41.88a1.92,1.92,0,0,0-.54-1.49,1.71,1.71,0,0,0-1.25-.47,1.82,1.82,0,0,0-1.33.55V40H62.69v5.27H64V42.07a.87.87,0,0,1,.89-1,.85.85,0,0,1,.87,1v3.18Z" fill="#0075be"/><path d="M71.37,42.47c0,.7-.09,1.38-.88,1.38s-.86-.68-.86-1.38.08-1.37.86-1.37.88.67.88,1.37m1.33,2.59V40H71.41v.5a1.54,1.54,0,0,0-1.29-.56,1.8,1.8,0,0,0-1.28.47,2.69,2.69,0,0,0-.54,2.08,2.75,2.75,0,0,0,.54,2.1,1.81,1.81,0,0,0,1.27.46,1.54,1.54,0,0,0,1.26-.53V45a1,1,0,0,1-1.07,1.09,1.37,1.37,0,0,1-1-.4l-.83.83a2.51,2.51,0,0,0,1.93.69,2.15,2.15,0,0,0,2.34-2.19" fill="#0075be"/><path d="M80.44,40.29a1,1,0,0,1-1,1H78.07v-2h1.32a1,1,0,0,1,1,1m1.42,0a2.23,2.23,0,0,0-2.4-2.24H76.65v7.2h1.42V42.54h1.39a2.23,2.23,0,0,0,2.4-2.25" fill="#0075be"/><path d="M86.83,40.42a1.57,1.57,0,0,0-1.25-.5,1.8,1.8,0,0,0-1.34.57V40H83v5.27h1.32V42.08a.88.88,0,0,1,1.56-.66Z" fill="#0075be"/><path d="M90.22,42.61a1.79,1.79,0,0,1-.31,1.29.85.85,0,0,1-.62.23.81.81,0,0,1-.61-.23,1.79,1.79,0,0,1-.31-1.29,1.74,1.74,0,0,1,.31-1.27.81.81,0,0,1,.61-.24.85.85,0,0,1,.62.24,1.74,1.74,0,0,1,.31,1.27m1.32,0a2.64,2.64,0,0,0-.6-2,2.2,2.2,0,0,0-1.65-.65,2.14,2.14,0,0,0-1.64.65,2.64,2.64,0,0,0-.6,2,2.69,2.69,0,0,0,.6,2.06,2.18,2.18,0,0,0,1.64.64,2.23,2.23,0,0,0,1.65-.64,2.69,2.69,0,0,0,.6-2.06" fill="#0075be"/><path d="M95.71,42.61c0,.86-.11,1.52-.91,1.52s-.89-.66-.89-1.52.1-1.51.89-1.51.91.65.91,1.51M97,45.25v-7.2H95.71v2.4a1.58,1.58,0,0,0-1.29-.53,1.85,1.85,0,0,0-1.3.48,3.08,3.08,0,0,0-.54,2.21,3.15,3.15,0,0,0,.54,2.23,1.92,1.92,0,0,0,1.31.47,1.6,1.6,0,0,0,1.31-.55v.49Z" fill="#0075be"/><path d="M102.88,45.25V40h-1.33v3.19a.86.86,0,0,1-.89,1,.85.85,0,0,1-.87-1V40H98.46v3.37a2,2,0,0,0,.54,1.5,1.77,1.77,0,0,0,1.26.46,1.81,1.81,0,0,0,1.32-.54v.48Z" fill="#0075be"/><path d="M108.23,44.6l-.9-.88a1.08,1.08,0,0,1-.86.41.92.92,0,0,1-.75-.34,1.86,1.86,0,0,1-.3-1.18,1.79,1.79,0,0,1,.3-1.16.9.9,0,0,1,.75-.35,1.09,1.09,0,0,1,.86.42l.9-.89a2.26,2.26,0,0,0-1.76-.71c-1.06,0-2.37.56-2.37,2.69s1.31,2.7,2.37,2.7a2.3,2.3,0,0,0,1.76-.71" fill="#0075be"/><path d="M111.64,45.25V44.14h-.48a.42.42,0,0,1-.46-.48V41.13h.94v-1h-.94V38.57h-1.32v1.56h-.56v1h.56v2.62a1.43,1.43,0,0,0,1.54,1.5Z" fill="#0075be"/><path d="M116.84,43.59c0-.89-.53-1.44-1.58-1.54l-.84-.09c-.46,0-.55-.26-.55-.45s.23-.51.76-.51a1.8,1.8,0,0,1,1.23.36l.82-.82a2.83,2.83,0,0,0-2-.62c-1.08,0-2.05.59-2.05,1.68s.59,1.39,1.55,1.48l.84.08c.41,0,.56.22.56.48s-.48.55-.94.55a2,2,0,0,1-1.42-.49l-.86.86a2.91,2.91,0,0,0,2.26.75c1.25,0,2.25-.55,2.25-1.72" fill="#0075be"/></svg>