<?xml version="1.0" standalone="no"?>
<!DOCTYPE svg PUBLIC "-//W3C//DTD SVG 20010904//EN"
 "http://www.w3.org/TR/2001/REC-SVG-20010904/DTD/svg10.dtd">
<svg version="1.0" xmlns="http://www.w3.org/2000/svg"
 width="474.000000pt" height="349.000000pt" viewBox="0 0 474.000000 349.000000"
 preserveAspectRatio="xMidYMid meet">
<metadata>
Created by potrace 1.16, written by Peter Selinger 2001-2019
</metadata>
<g transform="translate(0.000000,349.000000) scale(0.100000,-0.100000)"
fill="#000000" stroke="none">
<path d="M2100 2680 c-117 -18 -189 -33 -185 -41 3 -4 -3 -5 -14 -2 -24 6
-182 -48 -296 -101 -92 -43 -222 -135 -284 -200 -19 -20 -32 -36 -28 -36 4 0
-2 -10 -14 -22 -11 -13 -37 -54 -57 -93 -36 -69 -37 -72 -37 -185 0 -104 3
-121 29 -183 15 -37 32 -65 36 -62 5 3 14 -11 20 -30 7 -22 40 -61 92 -110 45
-41 84 -73 86 -70 3 3 10 -2 16 -10 27 -35 295 -163 315 -150 5 3 11 1 13 -5
8 -24 268 -73 454 -86 121 -8 345 10 464 38 47 10 101 23 120 27 51 12 177 60
235 89 129 64 293 191 279 214 -4 7 -2 8 4 4 14 -8 84 83 110 144 43 100 51
190 27 285 -27 101 -109 236 -139 227 -6 -2 -8 0 -4 4 11 10 -12 35 -25 27 -5
-3 -7 -2 -4 4 10 17 -129 127 -151 118 -7 -2 -10 0 -7 5 10 16 -202 113 -320
146 -158 45 -249 56 -465 60 -118 1 -240 -1 -270 -6z m460 -40 c188 -23 369
-78 520 -157 109 -57 161 -96 235 -174 33 -35 64 -62 68 -61 5 1 6 -2 3 -7 -6
-8 21 -69 35 -81 3 -3 11 -27 18 -54 17 -69 16 -183 -3 -235 -9 -24 -13 -48
-9 -54 3 -6 1 -7 -5 -3 -7 4 -12 3 -12 -3 0 -18 -62 -105 -104 -145 -23 -22
-63 -57 -91 -79 -27 -22 -49 -43 -48 -47 1 -4 -3 -7 -10 -6 -7 0 -55 -20 -107
-46 -371 -182 -849 -205 -1282 -62 -43 14 -83 22 -89 18 -8 -4 -9 -3 -5 4 4 7
-15 22 -52 40 -33 16 -70 36 -82 45 -18 13 -28 14 -44 5 -19 -10 -19 -9 -8 5
11 13 10 17 -8 27 -11 6 -25 8 -30 5 -6 -4 -9 -1 -8 7 2 7 -3 12 -10 10 -8 -1
-11 1 -9 6 7 11 -103 118 -117 114 -6 -2 -8 -1 -4 3 4 4 -12 44 -34 89 -36 70
-42 91 -46 161 -5 96 13 166 64 251 57 95 159 189 267 244 26 14 47 28 47 32
0 5 7 8 16 8 9 0 12 5 8 12 -4 7 -3 8 4 4 7 -4 51 9 100 28 97 39 216 70 350
90 106 17 367 20 482 6z"/>
<path d="M2165 2563 c-196 -24 -320 -57 -483 -130 -34 -15 -50 -27 -46 -35 4
-7 3 -8 -4 -4 -14 8 -64 -23 -56 -35 3 -5 -1 -6 -9 -4 -8 4 -43 -23 -85 -65
-90 -89 -134 -174 -140 -268 -5 -70 14 -176 29 -167 5 3 6 0 3 -8 -6 -15 48
-91 105 -148 46 -45 134 -110 187 -137 193 -98 574 -178 592 -123 3 9 0 11 -8
6 -8 -5 -11 -4 -7 2 4 6 -3 43 -15 84 -24 84 -31 259 -12 279 19 19 70 -14
107 -70 19 -28 37 -47 41 -43 4 4 5 1 2 -7 -4 -8 3 -29 13 -46 18 -30 23 -32
101 -39 53 -5 85 -4 92 3 7 7 -4 39 -35 104 -68 140 -79 168 -64 173 20 6 142
25 163 25 13 0 25 -14 39 -48 10 -26 17 -49 15 -52 -3 -3 -17 -4 -32 -4 -15 1
-29 -4 -32 -12 -3 -7 9 -52 25 -99 17 -47 29 -96 27 -108 -3 -24 -16 -26 -173
-17 -70 4 -80 3 -83 -12 -5 -27 26 -125 42 -131 15 -6 156 13 240 33 85 19
206 62 200 71 -3 5 1 6 9 4 18 -7 139 53 132 65 -3 6 0 7 7 5 17 -7 95 52 160
119 27 26 63 78 80 114 30 61 33 75 33 162 0 84 -3 101 -27 145 -95 176 -273
297 -542 370 -124 33 -273 52 -288 37 -17 -17 -9 -21 93 -46 111 -28 156 -46
226 -92 35 -23 50 -39 47 -49 -4 -8 -9 -15 -13 -15 -9 0 -46 -63 -43 -73 1 -5
-2 -6 -7 -3 -5 3 -25 -19 -46 -49 -20 -30 -38 -55 -41 -55 -2 0 -28 16 -57 36
-128 88 -285 122 -420 90 -78 -18 -130 -43 -122 -56 3 -6 0 -7 -8 -4 -9 3 -32
-15 -59 -45 -50 -56 -90 -160 -84 -221 2 -19 4 -45 5 -58 0 -13 5 -20 11 -17
5 3 7 0 4 -8 -3 -8 2 -32 11 -53 16 -40 10 -54 -27 -54 -41 0 -141 172 -152
265 -4 28 -2 74 4 104 11 60 61 167 93 202 12 13 21 27 19 32 -1 5 2 6 7 3 5
-4 13 -1 17 5 3 6 36 30 73 54 74 47 152 69 291 81 79 6 106 17 94 36 -5 8
-159 9 -219 1z m-230 -106 c-156 -114 -232 -329 -176 -496 24 -69 80 -158 129
-205 28 -26 33 -27 63 -17 18 6 34 9 37 6 6 -5 -25 -235 -32 -242 -2 -3 -45
10 -95 27 -50 17 -96 28 -103 24 -6 -4 -8 -3 -5 3 4 6 -7 16 -24 23 -131 55
-304 214 -333 308 -9 28 -24 173 -17 166 8 -8 41 88 34 100 -3 6 -3 8 2 4 4
-4 20 10 35 31 47 65 96 109 177 162 18 11 30 25 27 30 -3 5 2 6 11 3 8 -4 26
1 40 10 14 9 62 30 108 48 135 50 179 56 122 15z m1000 -51 c220 -104 343
-244 353 -402 5 -76 -9 -122 -60 -197 -21 -32 -36 -63 -32 -69 4 -7 3 -8 -5
-4 -15 10 -43 -13 -34 -27 3 -6 1 -7 -6 -3 -7 4 -26 -5 -45 -22 -19 -16 -48
-38 -65 -48 -25 -15 -28 -20 -18 -33 10 -12 9 -13 -8 -4 -15 9 -28 7 -57 -8
-55 -28 -184 -75 -259 -93 -79 -20 -202 -36 -211 -27 -4 3 -10 19 -14 35 l-7
29 106 -7 107 -7 25 27 c31 33 31 35 0 131 -14 43 -25 80 -25 83 0 4 15 4 34
2 18 -2 37 1 40 7 6 9 -18 76 -44 123 -14 25 -14 26 25 34 19 3 38 10 41 15 3
5 -7 56 -22 114 l-27 104 73 98 c40 54 78 104 84 112 8 10 1 21 -29 47 -54 45
-30 43 80 -10z m-470 -165 c72 -26 167 -81 162 -95 -2 -6 -107 -40 -233 -77
-292 -84 -310 -92 -325 -136 -10 -31 -9 -39 9 -62 17 -22 27 -26 66 -24 l46 1
-17 -31 c-22 -43 -19 -167 6 -267 11 -41 16 -78 13 -81 -8 -8 -169 14 -179 24
-3 4 1 70 11 147 13 104 14 144 6 160 -6 11 -15 18 -20 15 -6 -3 -7 0 -4 8 3
8 -2 31 -10 52 -25 59 -21 166 8 223 13 26 36 58 50 71 14 13 23 29 19 35 -3
6 -3 8 2 4 4 -4 26 2 49 14 22 12 59 27 81 35 55 18 185 10 260 -16z m249
-198 c20 -77 19 -79 -64 -89 -30 -3 -109 -14 -175 -24 -66 -11 -147 -22 -180
-25 l-61 -7 -12 38 c-6 21 -10 38 -9 39 6 2 177 51 301 86 76 21 141 41 144
44 3 3 13 5 22 5 13 0 22 -17 34 -67z m-557 -119 c3 -8 -2 -23 -11 -32 -15
-15 -17 -15 -32 0 -21 21 -11 48 16 48 11 0 23 -7 27 -16z m274 -81 c6 -21 27
-71 46 -112 18 -40 33 -75 33 -77 0 -2 -20 -4 -44 -4 -44 0 -44 0 -91 75 -26
42 -61 89 -78 105 l-30 28 49 7 c27 4 54 8 59 10 31 11 44 3 56 -32z"/>
<path d="M763 1173 c-13 -2 -23 -9 -23 -14 0 -5 -7 -9 -15 -9 -26 0 -83 -60
-101 -106 -15 -38 -15 -52 -5 -98 21 -94 93 -146 203 -146 64 0 117 21 146 58
28 36 9 39 -40 5 -46 -30 -59 -34 -96 -30 -25 3 -53 14 -66 26 -12 12 -24 19
-27 17 -2 -2 -5 5 -5 17 -1 12 -5 47 -9 78 -14 108 52 190 140 173 36 -6 95
-62 95 -89 0 -8 5 -15 10 -15 6 0 10 30 10 70 0 71 -4 81 -24 55 -10 -13 -17
-13 -60 0 -48 15 -87 17 -133 8z"/>
<path d="M1020 1170 c0 -5 9 -10 19 -10 10 0 22 -7 25 -16 3 -9 6 -83 6 -164
0 -154 -4 -168 -42 -162 -10 2 -18 -1 -18 -6 0 -14 47 -21 59 -9 6 6 11 7 11
2 0 -6 47 -10 113 -9 182 2 163 -5 171 65 4 34 5 63 2 66 -2 3 -12 -10 -21
-29 -27 -53 -53 -68 -117 -68 l-58 0 0 68 c0 38 3 71 6 74 15 16 45 -8 56 -43
6 -22 15 -39 20 -39 4 0 8 45 8 100 0 97 -12 131 -26 73 -9 -37 -23 -53 -45
-53 -17 0 -19 8 -19 70 l0 70 40 0 c66 0 118 -37 111 -77 -1 -7 3 -13 9 -13 6
0 10 25 10 60 l0 60 -160 0 c-100 0 -160 -4 -160 -10z"/>
<path d="M1385 1170 c-3 -5 3 -10 14 -10 34 0 41 -32 41 -177 -1 -107 -4 -142
-16 -158 -8 -11 -17 -19 -19 -17 -3 1 -11 2 -17 1 -7 0 -4 -4 7 -8 18 -7 52
-7 120 -1 16 1 13 5 -12 16 l-33 14 0 126 c0 114 2 125 16 113 9 -7 63 -71
120 -141 58 -70 111 -128 119 -128 13 0 15 27 15 164 0 171 3 196 25 196 8 0
17 5 20 10 4 6 -18 10 -59 10 -37 0 -66 -4 -66 -10 0 -5 7 -10 15 -10 8 0 19
-9 25 -19 13 -25 13 -171 0 -171 -5 0 -19 13 -31 30 -12 16 -26 27 -30 24 -5
-3 -6 1 -3 9 3 8 0 18 -7 23 -8 5 -10 3 -4 -6 5 -9 4 -11 -4 -6 -6 4 -9 12 -6
17 4 5 -15 34 -42 64 l-48 55 -67 0 c-37 0 -70 -4 -73 -10z"/>
<path d="M1820 1125 c0 -58 13 -73 24 -29 10 39 32 56 67 52 l31 -3 -1 -159
c-1 -88 -4 -163 -7 -168 -4 -5 -12 -7 -20 -4 -7 3 -16 1 -19 -4 -4 -6 6 -11
22 -11 15 -1 49 -3 76 -4 26 -1 62 1 80 4 l32 7 -27 7 c-36 10 -39 25 -36 192
l3 140 28 3 c33 4 62 -18 71 -54 11 -43 26 -25 26 31 l0 55 -175 0 -175 0 0
-55z"/>
<path d="M2200 1170 c0 -5 9 -10 20 -10 23 0 21 8 25 -155 1 -67 7 -130 13
-142 23 -42 69 -65 131 -65 60 0 106 16 96 32 -3 6 1 7 9 4 32 -12 49 41 53
164 5 147 8 162 33 162 11 0 20 5 20 11 0 6 -26 9 -70 8 -38 -1 -70 -6 -70
-11 0 -4 9 -8 19 -8 11 0 23 -5 27 -12 10 -16 5 -243 -6 -272 -8 -23 -55 -46
-91 -46 -11 0 -28 9 -39 20 -18 18 -20 33 -20 165 l0 145 25 0 c14 0 25 5 25
10 0 6 -40 10 -100 10 -60 0 -100 -4 -100 -10z"/>
<path d="M2630 1172 c0 -6 10 -12 23 -14 22 -3 22 -5 25 -170 l2 -166 -27 -10
c-27 -10 -27 -10 12 -12 22 -1 51 -3 65 -5 14 -1 43 1 65 5 l40 7 -27 11 c-27
11 -28 14 -28 83 0 80 10 85 48 28 23 -34 54 -76 83 -112 12 -16 29 -20 77
-22 45 -1 62 2 62 12 0 7 -5 12 -11 11 -12 -3 -88 87 -114 135 -15 26 -15 28
9 36 69 27 74 123 7 168 -21 15 -53 19 -168 21 -93 3 -143 0 -143 -6z m239
-36 c6 -4 11 -14 11 -22 0 -8 4 -14 9 -14 15 0 -10 -80 -28 -89 -9 -5 -29 -11
-46 -12 l-30 -4 -3 69 c-4 91 -1 96 41 86 19 -4 40 -10 46 -14z"/>
<path d="M3080 1171 c0 -5 10 -11 23 -13 22 -3 22 -4 22 -173 l0 -170 -22 3
c-13 2 -23 -2 -23 -8 0 -6 5 -8 10 -5 6 3 10 2 10 -2 0 -8 34 -8 150 -3 41 1
43 2 19 11 -15 6 -30 20 -33 32 -8 29 -8 281 0 301 3 9 17 16 30 16 13 0 24 5
24 10 0 6 -42 10 -105 10 -58 0 -105 -4 -105 -9z"/>
<path d="M3415 1162 c-51 -24 -108 -88 -102 -113 3 -11 1 -17 -4 -13 -5 3 -9
-12 -9 -34 0 -122 84 -204 209 -204 71 0 121 22 162 71 38 47 51 96 40 154
-11 59 -31 90 -81 123 -54 36 -157 43 -215 16z m137 -17 c31 -12 51 -75 51
-157 -2 -123 -37 -173 -113 -157 -38 8 -58 30 -67 71 -3 15 -8 26 -12 24 -15
-10 10 167 27 189 29 41 64 50 114 30z"/>
<path d="M3725 1170 c-3 -5 2 -10 12 -10 38 0 43 -19 43 -166 0 -78 -3 -149
-6 -158 -3 -9 -17 -16 -30 -16 -34 0 -30 -20 4 -21 15 0 38 -2 52 -3 14 -2 36
0 50 5 15 4 18 8 8 8 -40 2 -48 27 -48 152 0 65 3 119 8 119 4 0 22 -20 39
-43 51 -66 95 -112 104 -110 4 2 6 -3 3 -10 -2 -7 21 -40 53 -72 l58 -60 5
185 c5 183 5 185 28 188 12 2 20 8 17 13 -8 12 -125 12 -125 -1 0 -5 8 -10 19
-10 24 0 31 -26 31 -117 0 -77 -9 -89 -36 -48 -9 14 -20 22 -25 19 -5 -3 -8
-1 -7 5 2 5 -24 44 -57 85 l-60 76 -67 0 c-37 0 -70 -4 -73 -10z"/>
</g>
</svg>
